<svg width="315" height="134" viewBox="0 0 315 134" fill="none" xmlns="http://www.w3.org/2000/svg">
<g filter="url(#filter0_d_0_1)">
<rect x="17" y="13" width="100" height="100" rx="20" fill="black"/>
</g>
<g filter="url(#filter1_d_0_1)">
<rect x="-3.44159" y="69.1628" width="100" height="100" rx="20" transform="rotate(-50 -3.44159 69.1628)" fill="#FDE4B5"/>
</g>
<path d="M65.25 77V88H40.2812V77H45.2812V49.2812H40.2812V38.2812L65.25 38.2188V49.2812H61.2812V57.4688H73.25V49.2812H69.2812V38.2188L94.2188 38.2812V49.2812H89.25V77H94.2188V88H69.2812V77H73.25V68.1562H61.2812V77H65.25Z" fill="url(#paint0_linear_0_1)"/>
<path d="M187.176 32.5479C188.383 33.8239 189.352 35.5215 190.081 37.6406C190.81 39.737 191.175 41.8447 191.175 43.9639C191.175 46.0602 191.038 47.8148 190.765 49.2275C193.886 48.749 197.076 47.5413 200.335 45.6045V48.749C197.259 51.1644 193.693 52.7708 189.637 53.5684C188.247 57.3965 186.025 60.8031 182.972 63.7881C179.941 66.7731 176.546 69.0518 172.786 70.624C169.026 72.1735 165.244 72.9482 161.438 72.9482C154.101 72.9482 148.496 70.1341 144.622 64.5059C141.819 60.4499 140.418 55.0495 140.418 48.3047C140.418 42.6536 142.218 37.3102 145.818 32.2744C149.715 26.8057 154.705 23.0117 160.789 20.8926C164.139 19.7077 167.671 19.1152 171.385 19.1152C172.775 19.1152 174.336 19.2633 176.067 19.5596L175.931 23.0459C174.86 22.8636 173.299 22.7725 171.248 22.7725C169.22 22.7725 166.896 23.2396 164.275 24.1738C161.678 25.0853 159.41 26.3158 157.474 27.8652C155.56 29.3919 153.896 31.1237 152.483 33.0605C149.635 37.0026 148.211 41.127 148.211 45.4336C148.211 53.2493 150.706 58.9232 155.696 62.4551C158.613 64.5059 162.099 65.5312 166.155 65.5312C170.211 65.5312 173.857 64.4717 177.093 62.3525C180.328 60.2106 182.858 57.4421 184.681 54.0469H184.236C179.36 54.0469 175.213 52.8392 171.795 50.4238C170.132 49.2389 168.799 47.7008 167.796 45.8096C166.816 43.8955 166.326 41.5827 166.326 38.8711C166.326 36.1595 167.363 33.7783 169.437 31.7275C171.51 29.6768 174.563 28.6514 178.597 28.6514C181.832 28.6514 184.692 29.9502 187.176 32.5479ZM172.205 36.8545C172.205 40.4775 173.549 43.4854 176.238 45.8779C178.927 48.2705 182.345 49.501 186.492 49.5693C187.107 47.6325 187.415 45.6729 187.415 43.6904C187.415 40.432 186.572 37.7546 184.886 35.6582C183.222 33.5618 180.818 32.5137 177.674 32.5137C175.828 32.5137 174.45 32.901 173.538 33.6758C172.649 34.4505 172.205 35.5101 172.205 36.8545ZM205.154 70.7607C204.38 71.0798 203.525 71.3646 202.591 71.6152C201.679 71.8659 200.757 71.9912 199.822 71.9912C198.911 71.9912 197.942 71.9001 196.917 71.7178C195.914 71.5355 194.923 71.2393 193.943 70.8291C191.71 69.9176 190.594 68.3454 190.594 66.1123C190.594 65.2236 190.924 64.2096 191.585 63.0703C192.246 61.931 192.964 60.9284 193.738 60.0625C194.536 59.1966 195.47 58.2054 196.541 57.0889C197.612 55.9723 198.341 55.1748 198.729 54.6963C198.113 53.1696 197.806 51.5062 197.806 49.7061C197.806 47.04 198.626 44.8411 200.267 43.1094C201.907 41.3548 204.357 40.4775 207.615 40.4775C209.051 40.4775 209.769 40.8763 209.769 41.6738C209.769 43.0866 209.153 44.1917 207.923 44.9893C206.715 45.764 205.416 46.1514 204.026 46.1514C204.801 48.4984 206.111 50.6061 207.957 52.4746C208.641 53.2038 209.301 53.8988 209.939 54.5596C211.421 56.0635 212.161 57.3623 212.161 58.4561C212.161 60.1423 211.364 62.0791 209.769 64.2666L219.92 55.9609V59.7207C219.646 59.9486 218.963 60.541 217.869 61.498C216.798 62.4551 216.012 63.1501 215.511 63.583C215.032 63.9932 214.235 64.6426 213.118 65.5312C212.024 66.4199 211.136 67.1035 210.452 67.582C209.791 68.0378 208.937 68.596 207.889 69.2568C206.84 69.9176 205.929 70.4189 205.154 70.7607ZM200.198 57.3623C200.016 57.5674 199.321 58.2168 198.113 59.3105C195.424 61.7031 194.08 63.5488 194.08 64.8477C194.08 66.1237 194.741 67.2061 196.062 68.0947C197.384 68.9606 198.808 69.3936 200.335 69.3936C201.862 69.3936 203.092 69.1429 204.026 68.6416C204.961 68.1175 205.428 67.4567 205.428 66.6592C205.428 65.8617 205.325 65.1439 205.12 64.5059C204.915 63.8678 204.585 63.207 204.129 62.5234C203.696 61.8171 203.309 61.2474 202.967 60.8145C202.648 60.3587 202.158 59.7435 201.497 58.9688C200.836 58.1712 200.403 57.6357 200.198 57.3623ZM220.945 45.8779C220.626 45.8779 220.353 45.8779 220.125 45.8779C219.92 45.8779 219.715 45.8779 219.51 45.8779C219.305 45.8551 219.145 45.8324 219.031 45.8096C218.917 45.7868 218.781 45.7526 218.621 45.707C218.484 45.6615 218.37 45.6045 218.279 45.5361C218.188 45.4678 218.097 45.388 218.006 45.2969C217.846 45.1146 217.767 44.8753 217.767 44.5791C217.767 44.2601 217.778 44.055 217.801 43.9639C217.892 43.736 218.302 43.5765 219.031 43.4854L221.902 43.2119C222.973 39.6572 223.725 37.4014 224.158 36.4443C224.591 35.4645 225.001 34.5872 225.389 33.8125C225.799 33.0378 226.186 32.4339 226.551 32.001C226.938 31.568 227.382 31.1009 227.884 30.5996C228.385 30.0983 228.909 29.7223 229.456 29.4717C230.755 28.8792 232.088 28.583 233.455 28.583L233.592 28.7197C233.592 28.8109 233.296 29.6995 232.703 31.3857C230.743 36.9912 229.433 40.9333 228.772 43.2119L239.197 42.7334L238.445 43.9639C237.876 45.012 234.469 45.5361 228.226 45.5361C228.203 45.5361 227.85 46.8008 227.166 49.3301C225.115 56.8724 224.09 61.4411 224.09 63.0361C224.09 64.654 224.272 65.5882 224.637 65.8389C225.001 66.0667 225.377 66.1807 225.765 66.1807C226.995 66.1807 231.336 62.6488 238.787 55.585V59.4473C238.012 60.1536 236.941 61.1449 235.574 62.4209C234.207 63.6969 233.125 64.6995 232.327 65.4287C231.552 66.1351 230.573 66.9668 229.388 67.9238C228.226 68.8809 227.234 69.61 226.414 70.1113C224.318 71.3646 222.472 71.9912 220.877 71.9912C218.165 71.9912 216.81 70.0999 216.81 66.3174C216.81 64.2438 217.129 61.8057 217.767 59.0029C218.427 56.1774 218.986 53.876 219.441 52.0986C219.897 50.2985 220.398 48.2249 220.945 45.8779ZM242.171 64.1982C242.171 65.7021 242.57 66.4541 243.367 66.4541C243.868 66.4541 245.441 65.1553 248.084 62.5576C250.75 59.9372 252.869 57.7611 254.441 56.0293V59.8574C249.952 64.278 246.945 67.1263 245.418 68.4023C242.638 70.7038 240.257 71.9001 238.274 71.9912C237.272 71.9912 236.52 71.5469 236.019 70.6582C235.517 69.7467 235.267 68.5846 235.267 67.1719C235.267 65.7591 235.905 62.4437 237.181 57.2256C238.457 52.0075 239.3 48.8516 239.71 47.7578C240.143 46.6641 240.496 45.9007 240.77 45.4678C241.043 45.0348 241.385 44.693 241.795 44.4424C242.205 44.1917 242.558 43.998 242.854 43.8613C243.174 43.7018 243.652 43.5879 244.29 43.5195C245.179 43.4512 246.272 43.417 247.571 43.417C243.971 54.9469 242.171 61.874 242.171 64.1982ZM248.05 34.3252C246.432 34.3252 245.623 33.5049 245.623 31.8643C245.623 30.7249 246.045 29.6312 246.888 28.583C247.754 27.512 248.768 26.9766 249.93 26.9766C251.092 26.9766 251.958 27.2044 252.527 27.6602C253.097 28.1159 253.382 28.8109 253.382 29.7451C253.382 30.6566 252.835 31.6478 251.741 32.7188C250.67 33.7897 249.44 34.3252 248.05 34.3252ZM283.084 56.0977V59.9258C279.461 63.6172 276.248 66.5566 273.445 68.7441C270.665 70.9089 268.808 71.9912 267.874 71.9912C266.165 71.9912 265.311 71.0342 265.311 69.1201C265.311 67.2061 265.732 64.9274 266.575 62.2842C267.441 59.6182 268.296 57.2142 269.139 55.0723C270.005 52.9076 270.438 51.4606 270.438 50.7314C270.438 50.0023 270.301 49.4668 270.027 49.125C269.777 48.7832 269.469 48.6123 269.104 48.6123C267.806 48.6123 266.404 49.5238 264.9 51.3467C263.396 53.1468 262.052 55.3343 260.867 57.9092C258.406 63.2412 256.788 67.6048 256.014 71H249.485C249.508 68.5391 250.203 64.4603 251.57 58.7637C252.938 53.0671 254.157 48.863 255.228 46.1514C255.66 45.0576 256.276 44.3285 257.073 43.9639C257.894 43.5993 258.987 43.417 260.354 43.417H262.645C260.981 49.1592 259.751 53.2949 258.953 55.8242C260.48 52.9759 262.69 50.082 265.584 47.1426C266.997 45.7298 268.535 44.5677 270.198 43.6562C271.862 42.7448 273.434 42.2891 274.915 42.2891C277.148 42.2891 278.265 43.6221 278.265 46.2881C278.265 47.5641 277.456 50.5947 275.838 55.3799C274.243 60.1423 273.445 62.7741 273.445 63.2754C273.445 63.7539 273.582 63.9932 273.855 63.9932C274.152 63.9932 274.528 63.8451 274.983 63.5488C275.462 63.2298 276.818 62.0107 279.051 59.8916C281.284 57.7497 282.628 56.485 283.084 56.0977ZM297.918 84.5352C296.505 86.153 295.024 87.4176 293.475 88.3291C291.925 89.2406 290.535 89.6963 289.305 89.6963C288.074 89.6963 286.98 89.5254 286.023 89.1836C285.089 88.8646 284.269 88.3177 283.562 87.543C282.879 86.7682 282.537 86.0277 282.537 85.3213C282.537 84.6149 282.571 84.1022 282.64 83.7832C282.731 83.4642 282.902 83.1338 283.152 82.792C283.403 82.4502 283.597 82.1654 283.733 81.9375C283.893 81.7324 284.201 81.4362 284.656 81.0488C285.112 80.6615 285.42 80.3994 285.579 80.2627C285.739 80.126 286.126 79.8184 286.741 79.3398C287.356 78.8841 287.732 78.5993 287.869 78.4854L297.337 71.2051L298.431 65.3945C295.514 67.9922 293.087 69.7467 291.15 70.6582C289.236 71.5469 287.436 71.9912 285.75 71.9912C284.064 71.9912 282.799 71.2848 281.956 69.8721C281.136 68.4593 280.726 66.8073 280.726 64.916C280.726 63.002 281.022 60.974 281.614 58.832C282.229 56.6673 283.107 54.6051 284.246 52.6455C285.408 50.6859 286.753 48.9313 288.279 47.3818C289.806 45.8324 291.583 44.6019 293.611 43.6904C295.639 42.7562 297.701 42.2891 299.798 42.2891C301.894 42.2891 305.335 42.7334 310.12 43.6221L304.891 65.7363C305.506 65.1667 306.429 64.3008 307.659 63.1387C308.912 61.9538 309.801 61.1107 310.325 60.6094C311.692 59.3561 313.219 57.8066 314.905 55.9609V59.7891L304.173 70.2139C303.102 76.1156 301.017 80.8893 297.918 84.5352ZM296.893 74.999L291.287 79.75C291.15 79.8639 290.877 80.0804 290.467 80.3994C290.057 80.7184 289.76 80.9577 289.578 81.1172C289.396 81.2767 289.145 81.5273 288.826 81.8691C288.507 82.2109 288.279 82.5299 288.143 82.8262C287.732 83.6693 287.527 84.5352 287.527 85.4238C287.527 86.3353 287.721 86.9619 288.108 87.3037C288.519 87.6455 289.168 87.8164 290.057 87.8164C291.88 87.8164 293.361 86.6429 294.5 84.2959C295.662 81.9489 296.46 78.8499 296.893 74.999ZM288.211 59.9258C288.211 64.3236 289.316 66.5225 291.526 66.5225C293.486 66.5225 295.958 64.8363 298.943 61.4639L302.908 44.8184C301.245 44.4082 300.128 44.2031 299.559 44.2031C298.032 44.2031 296.551 44.7044 295.115 45.707C293.68 46.7096 292.472 47.9743 291.492 49.501C289.305 52.8506 288.211 56.3255 288.211 59.9258Z" fill="black"/>
<path d="M172.598 97.0312V101.613H174.227V105H166.984V97.0078C166.984 96.6719 166.875 96.375 166.656 96.1172C166.438 95.8594 166.176 95.7305 165.871 95.7305C165.301 95.7305 164.941 96.0156 164.793 96.5859C164.637 97.1719 164.559 97.9922 164.559 99.0469V105H158.934V97.0078C158.934 96.6719 158.824 96.375 158.605 96.1172C158.395 95.8594 158.137 95.7305 157.832 95.7305C157.262 95.7305 156.902 96.0156 156.754 96.5859C156.598 97.1719 156.52 97.9922 156.52 99.0469V101.613H156.543V105H149.219V101.613H150.918V96.0703H149.219V92.9062L156.52 92.2031V93.9609C157.059 93.3203 157.672 92.8672 158.359 92.6016C159.047 92.3359 159.824 92.2031 160.691 92.2031C162.465 92.2031 163.625 92.957 164.172 94.4648C164.75 93.6445 165.414 93.0625 166.164 92.7188C166.914 92.375 167.77 92.2031 168.73 92.2031C171.309 92.2031 172.598 93.8125 172.598 97.0312ZM179.758 105.211C178.961 105.211 178.238 105.055 177.59 104.742C176.934 104.438 176.41 103.996 176.02 103.418C175.629 102.84 175.434 102.168 175.434 101.402C175.434 100.574 175.664 99.8711 176.125 99.293C176.586 98.7305 177.188 98.3086 177.93 98.0273C178.68 97.7461 179.488 97.6055 180.355 97.6055C181.379 97.6055 182.363 97.7578 183.309 98.0625V97.5352C183.309 96.9102 183.043 96.4336 182.512 96.1055C181.988 95.7773 181.277 95.6133 180.379 95.6133C179.996 95.6133 179.566 95.6602 179.09 95.7539C178.613 95.8477 178.148 95.9766 177.695 96.1406C177.242 96.3047 176.848 96.4883 176.512 96.6914L176.172 96.5508V93.1406C177.117 92.8047 178.082 92.5664 179.066 92.4258C180.051 92.2773 180.969 92.2031 181.82 92.2031C186.57 92.2031 188.945 93.5391 188.945 96.2109V101.473H190.047V105H184.047L183.52 103.078C183.184 103.734 182.66 104.254 181.949 104.637C181.238 105.02 180.508 105.211 179.758 105.211ZM181.961 102.211C182.219 102.211 182.48 102.168 182.746 102.082C183.02 101.996 183.207 101.906 183.309 101.812V99.8438C183.191 99.8281 183.004 99.7812 182.746 99.7031C182.48 99.6328 182.25 99.5977 182.055 99.5977C181.641 99.5977 181.309 99.7266 181.059 99.9844C180.816 100.242 180.695 100.586 180.695 101.016C180.695 101.336 180.809 101.617 181.035 101.859C181.27 102.094 181.578 102.211 181.961 102.211ZM197.172 105.211C196.039 105.211 195.059 104.91 194.23 104.309C193.41 103.707 192.785 102.902 192.355 101.895C191.934 100.879 191.723 99.7617 191.723 98.543C191.723 97.4414 191.941 96.3984 192.379 95.4141C192.816 94.4453 193.434 93.668 194.23 93.082C195.035 92.4961 195.984 92.2031 197.078 92.2031C197.875 92.2031 198.559 92.332 199.129 92.5898C199.699 92.8477 200.23 93.2305 200.723 93.7383V90.668H198.848V87.4805L206.359 86.707V101.473H207.848V105H200.629V103.488C200.246 104.004 199.758 104.418 199.164 104.73C198.57 105.035 197.906 105.195 197.172 105.211ZM199.047 101.789C199.414 101.789 199.746 101.703 200.043 101.531C200.34 101.352 200.566 101.141 200.723 100.898V96.457C200.543 96.2461 200.301 96.0586 199.996 95.8945C199.699 95.7227 199.383 95.6367 199.047 95.6367C198.438 95.6367 197.941 95.8867 197.559 96.3867C197.176 96.8789 196.984 97.5977 196.984 98.543C196.984 99.5039 197.16 100.285 197.512 100.887C197.863 101.488 198.375 101.789 199.047 101.789ZM216.496 105.211C215.043 105.211 213.781 104.941 212.711 104.402C211.633 103.871 210.805 103.109 210.227 102.117C209.656 101.125 209.371 99.9648 209.371 98.6367C209.371 97.3242 209.652 96.1836 210.215 95.2148C210.77 94.2539 211.555 93.5117 212.57 92.9883C213.586 92.4648 214.777 92.2031 216.145 92.2031C217.402 92.2031 218.512 92.4492 219.473 92.9414C220.434 93.4414 221.176 94.1484 221.699 95.0625C222.23 95.9766 222.496 97.043 222.496 98.2617C222.496 98.6836 222.434 99.082 222.309 99.457H215.008C215.008 100.191 215.285 100.781 215.84 101.227C216.395 101.664 217.062 101.883 217.844 101.883C218.438 101.883 219.09 101.781 219.801 101.578C220.512 101.367 221.227 101.043 221.945 100.605L222.145 100.676V103.828C221.34 104.289 220.512 104.637 219.66 104.871C218.816 105.098 217.762 105.211 216.496 105.211ZM215.008 97.0547V97.3945H218.008V97.1484C218.008 96.5938 217.879 96.1172 217.621 95.7188C217.371 95.3125 216.996 95.1094 216.496 95.1094C216.082 95.1094 215.73 95.3164 215.441 95.7305C215.152 96.1367 215.008 96.5781 215.008 97.0547ZM237.684 105.211C236.23 105.211 234.969 104.941 233.898 104.402C232.82 103.871 231.992 103.109 231.414 102.117C230.844 101.125 230.559 99.9648 230.559 98.6367C230.559 97.3242 230.84 96.1836 231.402 95.2148C231.957 94.2539 232.742 93.5117 233.758 92.9883C234.773 92.4648 235.965 92.2031 237.332 92.2031C238.59 92.2031 239.699 92.4492 240.66 92.9414C241.621 93.4414 242.363 94.1484 242.887 95.0625C243.418 95.9766 243.684 97.043 243.684 98.2617C243.684 98.6836 243.621 99.082 243.496 99.457H236.195C236.195 100.191 236.473 100.781 237.027 101.227C237.582 101.664 238.25 101.883 239.031 101.883C239.625 101.883 240.277 101.781 240.988 101.578C241.699 101.367 242.414 101.043 243.133 100.605L243.332 100.676V103.828C242.527 104.289 241.699 104.637 240.848 104.871C240.004 105.098 238.949 105.211 237.684 105.211ZM236.195 97.0547V97.3945H239.195V97.1484C239.195 96.5938 239.066 96.1172 238.809 95.7188C238.559 95.3125 238.184 95.1094 237.684 95.1094C237.27 95.1094 236.918 95.3164 236.629 95.7305C236.34 96.1367 236.195 96.5781 236.195 97.0547ZM250 105.211C249.203 105.211 248.48 105.055 247.832 104.742C247.176 104.438 246.652 103.996 246.262 103.418C245.871 102.84 245.676 102.168 245.676 101.402C245.676 100.574 245.906 99.8711 246.367 99.293C246.828 98.7305 247.43 98.3086 248.172 98.0273C248.922 97.7461 249.73 97.6055 250.598 97.6055C251.621 97.6055 252.605 97.7578 253.551 98.0625V97.5352C253.551 96.9102 253.285 96.4336 252.754 96.1055C252.23 95.7773 251.52 95.6133 250.621 95.6133C250.238 95.6133 249.809 95.6602 249.332 95.7539C248.855 95.8477 248.391 95.9766 247.938 96.1406C247.484 96.3047 247.09 96.4883 246.754 96.6914L246.414 96.5508V93.1406C247.359 92.8047 248.324 92.5664 249.309 92.4258C250.293 92.2773 251.211 92.2031 252.062 92.2031C256.812 92.2031 259.188 93.5391 259.188 96.2109V101.473H260.289V105H254.289L253.762 103.078C253.426 103.734 252.902 104.254 252.191 104.637C251.48 105.02 250.75 105.211 250 105.211ZM252.203 102.211C252.461 102.211 252.723 102.168 252.988 102.082C253.262 101.996 253.449 101.906 253.551 101.812V99.8438C253.434 99.8281 253.246 99.7812 252.988 99.7031C252.723 99.6328 252.492 99.5977 252.297 99.5977C251.883 99.5977 251.551 99.7266 251.301 99.9844C251.059 100.242 250.938 100.586 250.938 101.016C250.938 101.336 251.051 101.617 251.277 101.859C251.512 102.094 251.82 102.211 252.203 102.211ZM268.691 105.211C267.09 105.211 265.672 104.789 264.438 103.945L264.051 105H261.871V100.371H264.484C264.586 100.965 264.863 101.496 265.316 101.965C265.77 102.434 266.293 102.668 266.887 102.668C267.113 102.668 267.309 102.605 267.473 102.48C267.645 102.355 267.73 102.148 267.73 101.859C267.73 101.57 267.566 101.309 267.238 101.074C266.902 100.832 266.402 100.555 265.738 100.242C264.934 99.8438 264.277 99.4805 263.77 99.1523C263.254 98.8242 262.809 98.3945 262.434 97.8633C262.059 97.3242 261.871 96.6797 261.871 95.9297C261.871 95.1562 262.125 94.4844 262.633 93.9141C263.141 93.3516 263.809 92.9258 264.637 92.6367C265.465 92.3477 266.367 92.2031 267.344 92.2031C268.617 92.2031 269.801 92.5391 270.895 93.2109L271.188 92.4492H273.133V96.1875H270.871C270.676 95.6797 270.395 95.2812 270.027 94.9922C269.66 94.7031 269.23 94.5586 268.738 94.5586C268.16 94.5586 267.871 94.7422 267.871 95.1094C267.879 95.3594 268.031 95.5742 268.328 95.7539C268.625 95.9258 269.105 96.1602 269.77 96.457C270.184 96.6289 270.562 96.8008 270.906 96.9727C271.25 97.1445 271.559 97.3086 271.832 97.4648C272.379 97.7852 272.855 98.2383 273.262 98.8242C273.668 99.4023 273.871 100.125 273.871 100.992C273.871 101.914 273.633 102.688 273.156 103.312C272.68 103.945 272.047 104.422 271.258 104.742C270.469 105.055 269.613 105.211 268.691 105.211ZM287.816 105.715V109.418H279.707V105.715H282.086L282.73 104.637L277.258 96.0703H275.77V92.4492H284.559V96.0703H283.398L285.344 99.668L287.125 96.0703H285.848V92.4492H292.398V96.0703H291.133L286.012 105.715H287.816Z" fill="#997C17"/>
<defs>
<filter id="filter0_d_0_1" x="13" y="13" width="108" height="108" filterUnits="userSpaceOnUse" color-interpolation-filters="sRGB">
<feFlood flood-opacity="0" result="BackgroundImageFix"/>
<feColorMatrix in="SourceAlpha" type="matrix" values="0 0 0 0 0 0 0 0 0 0 0 0 0 0 0 0 0 0 127 0" result="hardAlpha"/>
<feOffset dy="4"/>
<feGaussianBlur stdDeviation="2"/>
<feComposite in2="hardAlpha" operator="out"/>
<feColorMatrix type="matrix" values="0 0 0 0 0 0 0 0 0 0 0 0 0 0 0 0 0 0 0.25 0"/>
<feBlend mode="normal" in2="BackgroundImageFix" result="effect1_dropShadow_0_1"/>
<feBlend mode="normal" in="SourceGraphic" in2="effect1_dropShadow_0_1" result="shape"/>
</filter>
<filter id="filter1_d_0_1" x="0.734558" y="0.734619" width="132.531" height="132.531" filterUnits="userSpaceOnUse" color-interpolation-filters="sRGB">
<feFlood flood-opacity="0" result="BackgroundImageFix"/>
<feColorMatrix in="SourceAlpha" type="matrix" values="0 0 0 0 0 0 0 0 0 0 0 0 0 0 0 0 0 0 127 0" result="hardAlpha"/>
<feOffset dy="4"/>
<feGaussianBlur stdDeviation="2"/>
<feComposite in2="hardAlpha" operator="out"/>
<feColorMatrix type="matrix" values="0 0 0 0 0 0 0 0 0 0 0 0 0 0 0 0 0 0 0.25 0"/>
<feBlend mode="normal" in2="BackgroundImageFix" result="effect1_dropShadow_0_1"/>
<feBlend mode="normal" in="SourceGraphic" in2="effect1_dropShadow_0_1" result="shape"/>
</filter>
<linearGradient id="paint0_linear_0_1" x1="67.5" y1="10" x2="67.5" y2="126" gradientUnits="userSpaceOnUse">
<stop/>
<stop offset="1"/>
</linearGradient>
</defs>
</svg>
